HIERARCHY
ROOT Hip
{
  OFFSET 0.000000 0.000000 0.000000
  CHANNELS 6 Xposition Yposition Zposition Zrotation Xrotation Yrotation
  JOINT RHip
  {
    OFFSET 0.000000 0.000000 0.000000
    CHANNELS 3 Xposition Yposition Zposition
    End Site
    {
      OFFSET 0.000000 0.100000 0.000000
    }
  }
  JOINT RKnee
  {
    OFFSET 0.000000 0.000000 0.000000
    CHANNELS 3 Xposition Yposition Zposition
    End Site
    {
      OFFSET 0.000000 0.100000 0.000000
    }
  }
  JOINT RFoot
  {
    OFFSET 0.000000 0.000000 0.000000
    CHANNELS 3 Xposition Yposition Zposition
    End Site
    {
      OFFSET 0.000000 0.100000 0.000000
    }
  }
  JOINT LHip
  {
    OFFSET 0.000000 0.000000 0.000000
    CHANNELS 3 Xposition Yposition Zposition
    End Site
    {
      OFFSET 0.000000 0.100000 0.000000
    }
  }
  JOINT LKnee
  {
    OFFSET 0.000000 0.000000 0.000000
    CHANNELS 3 Xposition Yposition Zposition
    End Site
    {
      OFFSET 0.000000 0.100000 0.000000
    }
  }
  JOINT LFoot
  {
    OFFSET 0.000000 0.000000 0.000000
    CHANNELS 3 Xposition Yposition Zposition
    End Site
    {
      OFFSET 0.000000 0.100000 0.000000
    }
  }
  JOINT Spine
  {
    OFFSET 0.000000 0.000000 0.000000
    CHANNELS 3 Xposition Yposition Zposition
    End Site
    {
      OFFSET 0.000000 0.100000 0.000000
    }
  }
  JOINT Thorax
  {
    OFFSET 0.000000 0.000000 0.000000
    CHANNELS 3 Xposition Yposition Zposition
    End Site
    {
      OFFSET 0.000000 0.100000 0.000000
    }
  }
  JOINT Nose
  {
    OFFSET 0.000000 0.000000 0.000000
    CHANNELS 3 Xposition Yposition Zposition
    End Site
    {
      OFFSET 0.000000 0.100000 0.000000
    }
  }
  JOINT Head
  {
    OFFSET 0.000000 0.000000 0.000000
    CHANNELS 3 Xposition Yposition Zposition
    End Site
    {
      OFFSET 0.000000 0.100000 0.000000
    }
  }
  JOINT LShoulder
  {
    OFFSET 0.000000 0.000000 0.000000
    CHANNELS 3 Xposition Yposition Zposition
    End Site
    {
      OFFSET 0.000000 0.100000 0.000000
    }
  }
  JOINT LElbow
  {
    OFFSET 0.000000 0.000000 0.000000
    CHANNELS 3 Xposition Yposition Zposition
    End Site
    {
      OFFSET 0.000000 0.100000 0.000000
    }
  }
  JOINT LWrist
  {
    OFFSET 0.000000 0.000000 0.000000
    CHANNELS 3 Xposition Yposition Zposition
    End Site
    {
      OFFSET 0.000000 0.100000 0.000000
    }
  }
  JOINT RShoulder
  {
    OFFSET 0.000000 0.000000 0.000000
    CHANNELS 3 Xposition Yposition Zposition
    End Site
    {
      OFFSET 0.000000 0.100000 0.000000
    }
  }
  JOINT RElbow
  {
    OFFSET 0.000000 0.000000 0.000000
    CHANNELS 3 Xposition Yposition Zposition
    End Site
    {
      OFFSET 0.000000 0.100000 0.000000
    }
  }
  JOINT RWrist
  {
    OFFSET 0.000000 0.000000 0.000000
    CHANNELS 3 Xposition Yposition Zposition
    End Site
    {
      OFFSET 0.000000 0.100000 0.000000
    }
  }
}
MOTION
Frames: 15
Frame Time: 0.033333
0.094191 0.854754 0.000021 0.000000 0.000000 0.000000 0.049984 0.000688 0.045642 0.085256 -0.317908 -0.009936 0.071791 -0.672938 -0.035720 -0.049986 -0.000657 -0.045675 -0.024988 -0.288773 -0.110982 -0.096447 -0.652821 -0.055756 0.024306 0.212741 0.026953 0.057853 0.466914 0.050070 0.113031 0.555574 0.030678 0.080951 0.617423 0.070623 -0.002585 0.420221 -0.025498 -0.026518 0.201516 -0.169049 0.121823 0.158699 -0.116847 0.093684 0.419865 0.103728 0.068549 0.197364 0.227561 0.147424 0.183504 0.210472
0.096955 0.854754 0.000022 0.000000 0.000000 0.000000 0.049605 0.002786 0.047904 0.090927 -0.335753 -0.002002 0.075143 -0.705413 -0.016461 -0.049606 -0.002756 -0.047938 -0.035266 -0.314987 -0.112240 -0.108741 -0.688716 -0.051189 0.027087 0.220284 0.021626 0.062345 0.478463 0.040879 0.120378 0.572070 0.018760 0.090954 0.633893 0.057331 0.000517 0.428002 -0.037610 -0.020417 0.200882 -0.192444 0.133632 0.152476 -0.141436 0.098486 0.428247 0.100463 0.073218 0.199646 0.229382 0.152622 0.187348 0.200307
0.101985 0.854806 0.000018 0.000000 0.000000 0.000000 0.048689 0.003839 0.050277 0.095284 -0.339546 -0.002849 0.072715 -0.715776 -0.012278 -0.048691 -0.003810 -0.050304 -0.039628 -0.323225 -0.119344 -0.118084 -0.695354 -0.056477 0.030350 0.223708 0.019522 0.068154 0.483208 0.038510 0.130086 0.580336 0.016082 0.101881 0.639765 0.055606 0.006444 0.431256 -0.044183 -0.009919 0.202062 -0.209399 0.149687 0.152239 -0.160673 0.102312 0.431197 0.105824 0.074148 0.201733 0.250823 0.162461 0.198940 0.219843
0.108774 0.855067 0.000012 0.000000 0.000000 0.000000 0.048748 0.003661 0.052046 0.099597 -0.331350 -0.010893 0.068827 -0.705477 -0.020463 -0.048751 -0.003632 -0.052061 -0.038357 -0.314483 -0.130402 -0.124884 -0.675732 -0.069741 0.033328 0.222130 0.021005 0.074124 0.480310 0.043709 0.140194 0.579211 0.023284 0.111783 0.633692 0.066697 0.012945 0.429724 -0.043335 0.000436 0.204884 -0.215451 0.166162 0.157447 -0.170843 0.105606 0.427633 0.118407 0.071948 0.202027 0.284528 0.175327 0.214153 0.260765
0.116519 0.855841 0.000011 0.000000 0.000000 0.000000 0.050256 0.003915 0.053539 0.105188 -0.334237 -0.010627 0.072622 -0.711079 -0.016484 -0.050258 -0.003886 -0.053551 -0.038376 -0.318560 -0.133893 -0.133795 -0.677145 -0.071050 0.033901 0.221986 0.020989 0.075622 0.480481 0.045246 0.144862 0.580795 0.026038 0.116408 0.631971 0.071178 0.014016 0.430527 -0.044426 0.003475 0.205952 -0.219812 0.176116 0.160615 -0.178903 0.107082 0.426568 0.123954 0.071438 0.200157 0.295972 0.183011 0.221381 0.270978
0.124686 0.857354 0.000012 0.000000 0.000000 0.000000 0.050438 0.004337 0.054622 0.107443 -0.340389 -0.005869 0.075673 -0.722062 -0.010521 -0.050441 -0.004308 -0.054636 -0.035806 -0.327024 -0.131739 -0.139942 -0.685663 -0.066659 0.032349 0.223052 0.021002 0.072657 0.482804 0.045308 0.143612 0.583386 0.026866 0.114863 0.633983 0.070419 0.012175 0.432900 -0.045414 0.004738 0.205679 -0.221576 0.180818 0.163532 -0.182725 0.103963 0.428502 0.125143 0.070115 0.199132 0.294221 0.184449 0.226389 0.264351
0.133014 0.859680 0.000013 0.000000 0.000000 0.000000 0.048494 0.004442 0.055448 0.106039 -0.341682 -0.002795 0.073438 -0.726016 -0.012190 -0.048497 -0.004413 -0.055464 -0.028198 -0.329690 -0.129694 -0.142131 -0.684137 -0.066581 0.030295 0.223642 0.022702 0.068550 0.484139 0.048023 0.140341 0.584202 0.030928 0.110784 0.635039 0.071453 0.011519 0.434767 -0.043398 0.009298 0.205665 -0.219460 0.185409 0.168565 -0.180568 0.097569 0.430609 0.128384 0.066495 0.199855 0.295891 0.183523 0.235437 0.264308
0.140561 0.862687 0.000014 0.000000 0.000000 0.000000 0.045860 0.004212 0.056208 0.103672 -0.340726 -0.002426 0.067893 -0.726287 -0.017518 -0.045862 -0.004183 -0.056226 -0.017271 -0.328872 -0.128250 -0.143265 -0.675701 -0.067945 0.028419 0.223753 0.025717 0.065066 0.484458 0.053783 0.137310 0.584005 0.038597 0.106765 0.634642 0.076355 0.012378 0.436127 -0.038517 0.016046 0.206006 -0.213341 0.191234 0.176181 -0.170946 0.090724 0.432191 0.134790 0.062537 0.200757 0.301809 0.182584 0.246750 0.269589
0.146683 0.866338 0.000015 0.000000 0.000000 0.000000 0.045141 0.003313 0.056957 0.103264 -0.336858 -0.010296 0.058544 -0.721820 -0.026857 -0.045144 -0.003283 -0.056976 -0.005300 -0.322939 -0.128226 -0.145962 -0.657532 -0.066089 0.027852 0.222764 0.030893 0.064413 0.482940 0.065520 0.137393 0.582039 0.052088 0.105866 0.630707 0.090943 0.014377 0.436270 -0.028703 0.023308 0.205831 -0.201565 0.198639 0.187356 -0.152308 0.087516 0.432489 0.147885 0.061060 0.200194 0.317440 0.186483 0.258447 0.280004
0.151672 0.870657 0.000017 0.000000 0.000000 0.000000 0.046821 0.002506 0.058368 0.106248 -0.333764 -0.020782 0.048898 -0.717611 -0.033275 -0.046824 -0.002475 -0.058390 0.005894 -0.316296 -0.130846 -0.151166 -0.635183 -0.065771 0.028847 0.221092 0.036507 0.066521 0.480435 0.079863 0.141020 0.579718 0.067462 0.108637 0.624517 0.110608 0.016591 0.435352 -0.017767 0.029185 0.204478 -0.189754 0.206764 0.198023 -0.132885 0.088558 0.431244 0.164743 0.062983 0.197593 0.338886 0.196137 0.268877 0.290841
0.155730 0.875432 0.000019 0.000000 0.000000 0.000000 0.046533 0.002732 0.060455 0.108814 -0.337577 -0.018850 0.044158 -0.721688 -0.028983 -0.046535 -0.002700 -0.060481 0.018625 -0.316576 -0.132875 -0.153705 -0.621359 -0.075150 0.029634 0.220245 0.039807 0.067657 0.479102 0.089025 0.143543 0.579538 0.077693 0.110797 0.621184 0.121837 0.019163 0.434606 -0.012024 0.035282 0.202031 -0.184485 0.213617 0.202719 -0.120660 0.087759 0.429262 0.176324 0.064931 0.193926 0.350676 0.203156 0.276844 0.298656
0.158991 0.880558 0.000019 0.000000 0.000000 0.000000 0.043293 0.001741 0.061112 0.108139 -0.340400 -0.017473 0.039615 -0.721714 -0.034558 -0.043295 -0.001709 -0.061138 0.035948 -0.312864 -0.131096 -0.147606 -0.603696 -0.089701 0.030534 0.218569 0.045392 0.069031 0.475960 0.101541 0.144739 0.576914 0.091766 0.112824 0.616705 0.136615 0.024563 0.432485 -0.001797 0.046601 0.197145 -0.174705 0.219350 0.205649 -0.100626 0.085433 0.425608 0.189175 0.065179 0.188516 0.361739 0.207411 0.284596 0.318038
0.161778 0.885888 0.000019 0.000000 0.000000 0.000000 0.040126 -0.000516 0.061049 0.107165 -0.341207 -0.022388 0.035256 -0.717089 -0.048562 -0.040127 0.000549 -0.061074 0.055878 -0.304678 -0.129232 -0.136264 -0.581147 -0.105136 0.032205 0.215948 0.052650 0.071998 0.470909 0.117108 0.146838 0.571577 0.108772 0.116382 0.609641 0.156633 0.031298 0.429005 0.011896 0.059952 0.190589 -0.161104 0.224596 0.209789 -0.075565 0.085042 0.420822 0.204436 0.067607 0.182033 0.376995 0.214028 0.292525 0.345051
0.163857 0.891272 0.000019 0.000000 0.000000 0.000000 0.037737 -0.001596 0.063439 0.108458 -0.346394 -0.020138 0.036361 -0.720126 -0.051868 -0.037739 0.001629 -0.063464 0.077249 -0.302885 -0.128004 -0.124296 -0.570023 -0.113471 0.033306 0.215194 0.055297 0.073457 0.468762 0.123053 0.148853 0.569149 0.115747 0.118595 0.606331 0.163847 0.035476 0.427306 0.014918 0.068991 0.186513 -0.158071 0.229468 0.216221 -0.067056 0.084451 0.418807 0.212806 0.075039 0.178925 0.386298 0.220891 0.300443 0.360476
0.164393 0.896922 0.000019 0.000000 0.000000 0.000000 0.034633 -0.002105 0.066759 0.109344 -0.351348 -0.015252 0.038577 -0.724248 -0.056946 -0.034634 0.002138 -0.066785 0.100663 -0.300179 -0.123919 -0.109766 -0.562055 -0.114819 0.033746 0.215548 0.055665 0.073447 0.468586 0.123756 0.150294 0.568200 0.117435 0.119195 0.605697 0.163600 0.038703 0.426790 0.012283 0.077406 0.184595 -0.160783 0.233858 0.225359 -0.065715 0.082329 0.418984 0.217092 0.083719 0.178388 0.392313 0.226471 0.307910 0.368662
